<?xml version="1.0" encoding="UTF-8" standalone="no"?>
<svg width="59.165" xmlns="http://www.w3.org/2000/svg" height="26.342">
 <g id="Camada_x0020_1">
  <g id="_184978352" stroke="#000">
   <path id="_185310640" d="m-111.05-203.23c25.977-4.8631 47.036 16.402 47.036 47.498 0 20.708-9.3408 40.55-23.252 52.933l80.892 73.768 0.0055 59.935-70.559-52.847 59.025 213.06-47.957 7.8731-40.579-97.281-40.579 112.47-47.959 10.081 59.025-235.16-70.327 80.546v-59.729l76.458-101.7c-16.635-5.5628-28.265-23.238-28.265-46.346 0-31.096 21.057-60.245 47.034-65.108v0.000656z" class="fil0 str0"/>
   <path id="_185310352" d="m99.226-203.23c-25.977-4.8631-47.036 16.402-47.036 47.498 0 20.708 9.3407 40.55 23.252 52.933l-81.814 73.768v60.622l71.475-53.533-59.025 213.06 47.957 7.8731 40.579-97.281 40.58 112.47 47.957 10.081-59.025-235.16 70.704 79.428v-59.914l-76.834-100.4c16.635-5.5628 28.267-23.238 28.267-46.346 0-31.096-21.059-60.245-47.036-65.108v0.000656z" class="fil1 str0"/>
   <path id="_185311336" d="m-302.88-203.23c-25.977-4.8631-47.035 16.402-47.035 47.498 0 20.708 9.3408 40.55 23.251 52.933l-81.354 74.187-0.9219 60.548 71.936-53.878-59.025 213.06 47.958 7.8731 40.579-97.281 40.579 112.47 47.959 10.081-59.026-235.16 71.701 80.546v-59.729l-77.832-101.7c16.636-5.5628 28.266-23.238 28.266-46.346 0-31.096-21.058-60.245-47.035-65.108l0.0002 0.0008z" class="fil2 str0"/>
   <path id="_182435992" d="m291.05-203.23c25.977-4.8631 47.036 16.402 47.036 47.498 0 20.708-9.3408 40.55-23.252 52.933l81.354 74.187 0.9216 60.548-71.937-53.878 59.025 213.06-47.959 7.8731-40.577-97.281-40.579 112.47-47.959 10.081 59.026-235.16-71.325 80.124v-60.612l77.456-100.4c-16.635-5.563-28.267-23.238-28.267-46.346 0-31.096 21.059-60.245 47.036-65.108v0.000809z" class="fil3 str0"/>
  </g>
 </g>
</svg>
